<?xml version="1.0" encoding="UTF-8"?>
<!DOCTYPE svg PUBLIC "-//W3C//DTD SVG 1.1//EN" "http://www.w3.org/Graphics/SVG/1.1/DTD/svg11.dtd">
<svg xmlns="http://www.w3.org/2000/svg" version="1.1" width="500px" height="500px" style="shape-rendering:geometricPrecision; text-rendering:geometricPrecision; image-rendering:optimizeQuality; fill-rule:evenodd; clip-rule:evenodd" xmlns:xlink="http://www.w3.org/1999/xlink">
<g><path style="opacity:1" fill="#000000" d="M -0.5,-0.5 C 166.167,-0.5 332.833,-0.5 499.5,-0.5C 499.5,166.167 499.5,332.833 499.5,499.5C 332.833,499.5 166.167,499.5 -0.5,499.5C -0.5,332.833 -0.5,166.167 -0.5,-0.5 Z"/></g>
<g><path style="opacity:1" fill="#e0d9d5" d="M 258.5,218.5 C 260.288,218.215 261.955,218.548 263.5,219.5C 261.772,221.226 259.772,222.559 257.5,223.5C 256.5,223.167 255.833,222.5 255.5,221.5C 256.34,220.265 257.34,219.265 258.5,218.5 Z"/></g>
<g><path style="opacity:1" fill="#e2dad6" d="M 221.5,221.5 C 224.585,221.418 226.252,222.918 226.5,226C 223.976,232.882 221.31,239.715 218.5,246.5C 218.434,248.266 219.268,249.266 221,249.5C 234.143,244.848 245.976,238.015 256.5,229C 257.448,228.517 258.448,228.351 259.5,228.5C 252.688,240.119 246.354,252.119 240.5,264.5C 245.802,265.329 251.136,265.829 256.5,266C 258.974,266.113 260.974,267.113 262.5,269C 255.015,267.484 247.349,267.151 239.5,268C 232.517,278.114 228.851,289.28 228.5,301.5C 227.682,298.893 227.182,296.226 227,293.5C 221.854,306.305 214.354,317.472 204.5,327C 190.693,338.575 179.193,336.742 170,321.5C 167.65,314.153 168.483,307.153 172.5,300.5C 169.85,297.349 167.016,294.349 164,291.5C 163.667,294.833 163.333,298.167 163,301.5C 162.333,296.833 162.333,292.167 163,287.5C 166.703,290.867 170.036,294.534 173,298.5C 173.333,294.833 173.667,291.167 174,287.5C 174.333,290.5 174.667,293.5 175,296.5C 190.566,277.715 210.566,267.048 235,264.5C 238.912,256.343 243.078,248.343 247.5,240.5C 247.167,240.167 246.833,239.833 246.5,239.5C 240.664,243.252 234.664,246.752 228.5,250C 220.542,253.86 216.208,251.526 215.5,243C 217.042,236.783 219.209,230.95 222,225.5C 214.569,230.927 207.736,237.093 201.5,244C 199.112,244.865 197.612,244.032 197,241.5C 195.73,235.537 197.23,230.37 201.5,226C 203.92,225.085 205.253,225.918 205.5,228.5C 204.53,231.774 203.03,234.774 201,237.5C 200.333,238.5 200.333,239.5 201,240.5C 207.429,233.565 214.262,227.232 221.5,221.5 Z"/></g>
<g><path style="opacity:1" fill="#050505" d="M 182.5,292.5 C 183.167,295.5 183.833,298.5 184.5,301.5C 184.833,301.5 185.167,301.5 185.5,301.5C 187.527,301.662 189.527,301.495 191.5,301C 189.866,300.506 188.199,300.34 186.5,300.5C 186.5,298.5 186.5,296.5 186.5,294.5C 191.833,294.167 191.833,293.833 186.5,293.5C 186.5,291.833 186.5,290.167 186.5,288.5C 199.645,277 214.978,270.334 232.5,268.5C 227.097,283.307 220.597,297.64 213,311.5C 206.712,322.636 197.379,329.636 185,332.5C 177.576,330.741 173.243,326.075 172,318.5C 171.369,308.104 174.869,299.437 182.5,292.5 Z"/></g>
<g><path style="opacity:1" fill="#c3bdb9" d="M 280.5,287.5 C 281.812,289.743 282.478,292.41 282.5,295.5C 282.333,298.167 282.167,300.833 282,303.5C 281.692,304.308 281.192,304.975 280.5,305.5C 280.428,299.779 280.428,293.779 280.5,287.5 Z"/></g>
<g><path style="opacity:1" fill="#777370" d="M 184.5,301.5 C 183.833,298.5 183.167,295.5 182.5,292.5C 182.783,291.711 183.283,291.044 184,290.5C 184.499,294.152 184.665,297.818 184.5,301.5 Z"/></g>
<g><path style="opacity:1" fill="#5b5856" d="M 202.5,289.5 C 202.5,290.167 202.5,290.833 202.5,291.5C 202.699,294.941 202.199,298.274 201,301.5C 200.855,297.323 201.355,293.323 202.5,289.5 Z"/></g>
<g><path style="opacity:1" fill="#cdc6c2" d="M 202.5,291.5 C 202.5,290.833 202.5,290.167 202.5,289.5C 202.369,288.761 202.536,288.094 203,287.5C 205.421,291.34 207.588,295.34 209.5,299.5C 208.726,300.711 207.893,300.711 207,299.5C 205.74,296.641 204.24,293.974 202.5,291.5 Z"/></g>
<g><path style="opacity:1" fill="#575452" d="M 214.5,289.5 C 214.5,290.167 214.5,290.833 214.5,291.5C 213.442,292.6 212.608,293.934 212,295.5C 211.346,296.696 210.846,296.696 210.5,295.5C 211.361,293.089 212.694,291.089 214.5,289.5 Z"/></g>
<g><path style="opacity:1" fill="#beb8b4" d="M 244.5,294.5 C 245.387,291.999 245.72,289.666 245.5,287.5C 247.446,289.044 247.946,291.044 247,293.5C 246.329,294.252 245.496,294.586 244.5,294.5 Z"/></g>
<g><path style="opacity:1" fill="#575452" d="M 186.5,288.5 C 186.5,290.167 186.5,291.833 186.5,293.5C 191.833,293.833 191.833,294.167 186.5,294.5C 186.5,296.5 186.5,298.5 186.5,300.5C 188.199,300.34 189.866,300.506 191.5,301C 189.527,301.495 187.527,301.662 185.5,301.5C 185.182,296.968 185.515,292.634 186.5,288.5 Z"/></g>
<g><path style="opacity:1" fill="#bbb5b1" d="M 214.5,291.5 C 214.5,290.833 214.5,290.167 214.5,289.5C 214.393,287.621 214.893,287.288 216,288.5C 216.318,292.195 216.818,295.862 217.5,299.5C 216.833,302.167 216.167,302.167 215.5,299.5C 214.731,296.885 214.397,294.219 214.5,291.5 Z"/></g>
<g><path style="opacity:1" fill="#696663" d="M 266.5,295.5 C 266.5,295.833 266.5,296.167 266.5,296.5C 263.453,295.855 261.287,296.855 260,299.5C 259.743,296.983 260.41,294.65 262,292.5C 262.483,293.448 262.649,294.448 262.5,295.5C 263.833,295.5 265.167,295.5 266.5,295.5 Z"/></g>
<g><path style="opacity:1" fill="#c5bfbb" d="M 244.5,294.5 C 245.581,296.764 246.915,298.931 248.5,301C 248.167,301.167 247.833,301.333 247.5,301.5C 245.5,299.5 243.5,297.5 241.5,295.5C 239.707,303.328 238.707,302.995 238.5,294.5C 239.179,285.211 239.846,285.211 240.5,294.5C 241.833,294.5 243.167,294.5 244.5,294.5 Z"/></g>
<g><path style="opacity:1" fill="#d2cbc7" d="M 266.5,296.5 C 266.5,296.167 266.5,295.833 266.5,295.5C 265.883,293.32 264.883,291.32 263.5,289.5C 263.808,288.692 264.308,288.025 265,287.5C 266.833,291.667 268.667,295.833 270.5,300C 270.167,300.5 269.833,301 269.5,301.5C 268.675,299.64 267.675,297.974 266.5,296.5 Z"/></g>
</svg>
