<?xml version="1.0" encoding="UTF-8"?>
<!DOCTYPE svg PUBLIC "-//W3C//DTD SVG 1.1//EN" "http://www.w3.org/Graphics/SVG/1.1/DTD/svg11.dtd">
<svg xmlns="http://www.w3.org/2000/svg" version="1.1" width="204px" height="145px" style="shape-rendering:geometricPrecision; text-rendering:geometricPrecision; image-rendering:optimizeQuality; fill-rule:evenodd; clip-rule:evenodd" xmlns:xlink="http://www.w3.org/1999/xlink">
<g><path style="opacity:1" fill="#010101" d="M -0.5,-0.5 C 67.5,-0.5 135.5,-0.5 203.5,-0.5C 203.5,47.8333 203.5,96.1667 203.5,144.5C 135.5,144.5 67.5,144.5 -0.5,144.5C -0.5,96.1667 -0.5,47.8333 -0.5,-0.5 Z"/></g>
<g><path style="opacity:1" fill="#cccccc" d="M 117.5,17.5 C 119.103,17.3118 120.437,17.8118 121.5,19C 119.522,21.864 117.189,22.5307 114.5,21C 115.71,19.9609 116.71,18.7942 117.5,17.5 Z"/></g>
<g><path style="opacity:1" fill="#cbccc7" d="M 79.5,20.5 C 82.8641,19.8728 84.8641,21.2061 85.5,24.5C 82.9755,31.7164 80.3088,38.883 77.5,46C 77.6667,47.5 78.5,48.3333 80,48.5C 93.1425,43.8482 104.976,37.0149 115.5,28C 116.5,27.3333 117.5,27.3333 118.5,28C 112.181,39.635 105.848,51.3017 99.5,63C 104.769,64.1062 110.103,64.7728 115.5,65C 117.044,65.2896 118.377,65.9563 119.5,67C 112.487,66.576 105.487,66.7427 98.5,67.5C 92.267,76.8622 88.6003,87.1956 87.5,98.5C 86.7022,96.9223 86.2022,95.2556 86,93.5C 80.1932,106.646 72.0265,118.146 61.5,128C 42.9685,138.156 31.6352,132.822 27.5,112C 28.0431,107.704 29.3765,103.704 31.5,100C 28.9473,97.0631 26.2807,94.2297 23.5,91.5C 22.6922,93.4233 22.1922,95.4233 22,97.5C 21.3333,93.8333 21.3333,90.1667 22,86.5C 25.7026,89.8675 29.036,93.5342 32,97.5C 32.3333,94.8333 32.6667,92.1667 33,89.5C 33.2163,91.3839 33.883,93.0506 35,94.5C 50.7403,76.3775 70.5737,65.7109 94.5,62.5C 98.6273,55.0794 102.627,47.5794 106.5,40C 105.5,39.3333 104.5,39.3333 103.5,40C 97.8223,43.8405 91.8223,47.1739 85.5,50C 78.7768,51.9109 75.1102,49.4109 74.5,42.5C 75.8943,36.5524 77.7276,30.8857 80,25.5C 72.9037,30.5924 66.4037,36.4257 60.5,43C 59.2068,43.49 57.8734,43.6567 56.5,43.5C 53.9102,35.7512 55.7436,29.4179 62,24.5C 63.7324,24.7336 64.5658,25.7336 64.5,27.5C 64.0431,31.0468 62.5431,34.0468 60,36.5C 59.3333,37.5 59.3333,38.5 60,39.5C 66.6997,33.2994 73.1997,26.9661 79.5,20.5 Z"/></g>
<g><path style="opacity:1" fill="#090a08" d="M 44.5,100.5 C 50.1667,100.336 50.5,100.003 45.5,99.5C 45.0833,96.9208 45.75,94.7542 47.5,93C 46.0267,92.2904 45.3601,91.1238 45.5,89.5C 45.8588,87.629 46.8588,86.129 48.5,85C 61.2136,74.9648 75.5469,69.4648 91.5,68.5C 85.4705,83.5581 78.6371,98.2248 71,112.5C 64.8087,122.672 55.8087,129.005 44,131.5C 35.0051,128.695 30.8384,122.529 31.5,113C 31.9662,104.943 35.1328,98.1098 41,92.5C 41.7378,95.5015 42.9045,98.1682 44.5,100.5 Z"/></g>
<g><path style="opacity:1" fill="#b2b2b2" d="M 139.5,87.5 C 141.917,92.6535 142.084,97.9868 140,103.5C 139.501,98.1771 139.334,92.8437 139.5,87.5 Z"/></g>
<g><path style="opacity:1" fill="#969691" d="M 73.5,87.5 C 75.1644,88.9488 75.9977,90.9488 76,93.5C 76.8141,95.9018 76.6474,98.2351 75.5,100.5C 73.8152,96.3451 73.1486,92.0118 73.5,87.5 Z"/></g>
<g><path style="opacity:1" fill="#a2a39f" d="M 97.5,87.5 C 99.3079,88.9179 99.9746,90.9179 99.5,93.5C 103.352,93.5113 105.185,91.5113 105,87.5C 106.983,89.9297 106.817,92.2631 104.5,94.5C 108.14,102.151 106.973,102.484 101,95.5C 100.077,96.7588 99.2432,98.0921 98.5,99.5C 97.5091,95.5546 97.1758,91.5546 97.5,87.5 Z"/></g>
<g><path style="opacity:1" fill="#969696" d="M 122.5,87.5 C 124.888,88.2187 126.388,89.8854 127,92.5C 127.695,94.7221 128.528,96.8887 129.5,99C 129.167,99.5 128.833,100 128.5,100.5C 127.376,99.086 126.376,97.586 125.5,96C 123.251,95.1368 121.418,95.6368 120,97.5C 119.393,93.1715 120.559,92.1715 123.5,94.5C 124.167,94.3333 124.833,94.1667 125.5,94C 124.588,91.7492 123.588,89.5825 122.5,87.5 Z"/></g>
<g><path style="opacity:1" fill="#b5b7b4" d="M 61.5,87.5 C 64.5575,90.5935 66.8909,94.2601 68.5,98.5C 68.1667,98.8333 67.8333,99.1667 67.5,99.5C 64.1666,96.1666 62.1666,92.1666 61.5,87.5 Z"/></g>
<g><path style="opacity:1" fill="#71716e" d="M 45.5,89.5 C 45.3601,91.1238 46.0267,92.2904 47.5,93C 45.75,94.7542 45.0833,96.9208 45.5,99.5C 50.5,100.003 50.1667,100.336 44.5,100.5C 44.185,96.6286 44.5184,92.9619 45.5,89.5 Z"/></g>
</svg>
